<?xml version="1.0" encoding="UTF-8"?><svg id="Layer_2" xmlns="http://www.w3.org/2000/svg" xmlns:xlink="http://www.w3.org/1999/xlink" viewBox="0 0 698.63 708.17"><defs><style>.cls-1{fill:url(#linear-gradient);}.cls-2{stroke-width:33px;}.cls-2,.cls-3,.cls-4{fill:none;stroke:#fca5a5;stroke-miterlimit:10;}.cls-5{font-family:KorolevMilitaryStencil, 'Korolev Military Stencil';font-size:229.23px;letter-spacing:.13em;}.cls-5,.cls-6{fill:#fca5a5;}.cls-7{fill:#fff;}.cls-3{stroke-width:43px;}.cls-4{stroke-width:22px;}</style><linearGradient id="linear-gradient" x1="88.53" y1="63.76" x2="88.53" y2="0" gradientUnits="userSpaceOnUse"><stop offset="0" stop-color="#f57777"/><stop offset=".98" stop-color="#f78d8d"/></linearGradient></defs><g id="Ebene_1"><path class="cls-7" d="M0,415.2V32.77C37.43,18.06,54.48,9.23,85.42,9.23c29.55,0,53.21,6.75,91.41,23.54V415.2c0,94.68-39.58,171.43-88.41,171.43h0c-48.83,0-88.41-76.75-88.41-171.43Z"/><ellipse class="cls-1" cx="88.53" cy="31.88" rx="88.53" ry="31.88"/><rect class="cls-7" x="0" y="321.1" width="698.63" height="387.07" rx="113.31" ry="113.31"/><g><g><polygon class="cls-6" points="221.94 623.98 214.35 670.19 180.18 670.19 172.59 624.8 221.94 623.98"/><polygon class="cls-6" points="161.32 618.93 123.28 646.24 99.11 622.08 125.84 584.62 161.32 618.93"/><polygon class="cls-6" points="122.02 572.5 75.81 564.91 75.81 530.74 121.2 523.15 122.02 572.5"/><polygon class="cls-6" points="127.06 511.88 99.75 473.83 123.92 449.67 161.38 476.4 127.06 511.88"/><polygon class="cls-6" points="173.49 472.58 181.09 426.37 215.26 426.37 222.85 471.75 173.49 472.58"/><polygon class="cls-6" points="234.11 477.62 272.16 450.31 296.32 474.48 269.6 511.94 234.11 477.62"/><polygon class="cls-6" points="273.42 524.05 319.63 531.65 319.63 565.82 274.24 573.41 273.42 524.05"/><polygon class="cls-6" points="268.37 584.67 295.68 622.72 271.52 646.88 234.06 620.16 268.37 584.67"/></g><ellipse class="cls-3" cx="197.72" cy="548.28" rx="65.1" ry="63.13"/></g><g><g><polygon class="cls-6" points="458.58 516.95 466.09 554.65 440.1 564.37 421.27 531.63 458.58 516.95"/><polygon class="cls-6" points="410.51 530.35 389.17 562.32 363.91 550.82 373.75 514.35 410.51 530.35"/><polygon class="cls-6" points="367.05 505.84 329.35 513.35 319.63 487.36 352.37 468.53 367.05 505.84"/><polygon class="cls-6" points="353.65 457.77 321.68 436.43 333.19 411.17 369.66 421.01 353.65 457.77"/><polygon class="cls-6" points="378.17 414.31 370.65 376.61 396.64 366.89 415.48 399.63 378.17 414.31"/><polygon class="cls-6" points="426.23 400.91 447.57 368.94 472.83 380.45 462.99 416.92 426.23 400.91"/><polygon class="cls-6" points="469.69 425.43 507.39 417.91 517.11 443.9 484.37 462.74 469.69 425.43"/><polygon class="cls-6" points="483.09 473.49 515.06 494.83 503.56 520.09 467.09 510.25 483.09 473.49"/></g><ellipse class="cls-2" cx="418.37" cy="465.63" rx="52.87" ry="51.83" transform="translate(-136.63 176.11) rotate(-20.51)"/></g><g><g><g id="_Radial_Repeat_"><polygon class="cls-6" points="561.51 642.79 557 670.19 536.68 670.19 532.16 643.28 561.51 642.79"/></g><g id="_Radial_Repeat_-2"><polygon class="cls-6" points="525.56 639.83 502.99 656.01 488.62 641.64 504.46 619.42 525.56 639.83"/></g><g id="_Radial_Repeat_-3"><polygon class="cls-6" points="502.23 612.31 474.83 607.8 474.83 587.48 501.74 582.96 502.23 612.31"/></g><g id="_Radial_Repeat_-4"><polygon class="cls-6" points="505.18 576.36 489 553.79 503.37 539.42 525.59 555.26 505.18 576.36"/></g><g id="_Radial_Repeat_-5"><polygon class="cls-6" points="532.7 553.03 537.22 525.63 557.54 525.63 562.05 552.54 532.7 553.03"/></g><g id="_Radial_Repeat_-6"><polygon class="cls-6" points="568.66 555.98 591.22 539.8 605.59 554.17 589.76 576.39 568.66 555.98"/></g><g id="_Radial_Repeat_-7"><polygon class="cls-6" points="591.99 583.5 619.39 588.02 619.39 608.34 592.48 612.85 591.99 583.5"/></g><g id="_Radial_Repeat_-8"><polygon class="cls-6" points="589.03 619.46 605.21 642.02 590.84 656.39 568.62 640.56 589.03 619.46"/></g></g><ellipse class="cls-4" cx="547.11" cy="597.91" rx="38.71" ry="37.43"/></g><rect class="cls-7" x="261.57" y=".89" width="437.06" height="245.35" rx="69.71" ry="69.71"/><text class="cls-5" transform="translate(317.7 204.76)"><tspan x="0" y="0">2:1</tspan></text><rect class="cls-7" x="341.96" y="221.79" width="39.25" height="107.36"/><rect class="cls-7" x="576.77" y="221.79" width="39.25" height="107.36"/></g></svg>